<svg xmlns="http://www.w3.org/2000/svg" xmlns:xlink="http://www.w3.org/1999/xlink" width="268" height="235" viewBox="0 0 268 235">
  <defs>
    <filter id="Retângulo_232" x="0" y="0" width="268" height="140" filterUnits="userSpaceOnUse">
      <feOffset dy="3" input="SourceAlpha"/>
      <feGaussianBlur stdDeviation="10" result="blur"/>
      <feFlood flood-color="#e2306c" flood-opacity="0.702"/>
      <feComposite operator="in" in2="blur"/>
      <feComposite in="SourceGraphic"/>
    </filter>
    <filter id="Retângulo_232-2" x="0" y="95" width="268" height="140" filterUnits="userSpaceOnUse">
      <feOffset dy="3" input="SourceAlpha"/>
      <feGaussianBlur stdDeviation="10" result="blur-2"/>
      <feFlood flood-color="#e2306c" flood-opacity="0.702"/>
      <feComposite operator="in" in2="blur-2"/>
      <feComposite in="SourceGraphic"/>
    </filter>
  </defs>
  <g id="Grupo_21113" data-name="Grupo 21113" transform="translate(-2335 -19534)">
    <g id="Grupo_21111" data-name="Grupo 21111" transform="translate(1405 14055)">
      <g transform="matrix(1, 0, 0, 1, 930, 5479)" filter="url(#Retângulo_232)">
        <g id="Retângulo_232-3" data-name="Retângulo 232" transform="translate(30 27)" fill="#e2306c" stroke="#e3457a" stroke-width="1">
          <rect width="208" height="80" rx="10" stroke="none"/>
          <rect x="0.5" y="0.5" width="207" height="79" rx="9.5" fill="none"/>
        </g>
      </g>
      <text id="Disponível_na" data-name="Disponível na" transform="translate(1049 5541)" fill="#fff" font-size="12" font-family="Roboto-Regular, Roboto"><tspan x="0" y="0">Disponível na</tspan></text>
      <text id="Google_Play" data-name="Google Play" transform="translate(1049 5559)" fill="#fff" font-size="16" font-family="Roboto-Regular, Roboto"><tspan x="0" y="0">Google Play</tspan></text>
      <path id="Icon_awesome-google-play" data-name="Icon awesome-google-play" d="M22.873,16.474,7.355.914,27.1,12.248l-4.226,4.226ZM3.3,0A2.733,2.733,0,0,0,1.779,2.482V33.511A2.733,2.733,0,0,0,3.3,35.993l18.042-18ZM33.2,15.863l-4.141-2.4L24.441,18l4.62,4.535,4.226-2.4a2.821,2.821,0,0,0-.084-4.275ZM7.355,35.086,27.1,23.752l-4.226-4.226Z" transform="translate(990.266 5528.004)" fill="#fff"/>
    </g>
    <g id="Grupo_21112" data-name="Grupo 21112" transform="translate(1177 14150)">
      <g id="Grupo_21050" data-name="Grupo 21050" transform="translate(228)">
        <g transform="matrix(1, 0, 0, 1, 930, 5384)" filter="url(#Retângulo_232-2)">
          <g id="Retângulo_232-4" data-name="Retângulo 232" transform="translate(30 122)" fill="#e2306c" stroke="#e3457a" stroke-width="1">
            <rect width="208" height="80" rx="10" stroke="none"/>
            <rect x="0.5" y="0.5" width="207" height="79" rx="9.5" fill="none"/>
          </g>
        </g>
        <text id="Disponível_na-2" data-name="Disponível na" transform="translate(1049 5541)" fill="#fff" font-size="12" font-family="Roboto-Regular, Roboto"><tspan x="0" y="0">Disponível na</tspan></text>
        <text id="App_Store" data-name="App Store" transform="translate(1049 5559)" fill="#fff" font-size="16" font-family="Roboto-Regular, Roboto"><tspan x="0" y="0">App Store</tspan></text>
      </g>
      <path id="Icon_awesome-app-store-ios" data-name="Icon awesome-app-store-ios" d="M28.125,2.25H3.375A3.376,3.376,0,0,0,0,5.625v24.75A3.376,3.376,0,0,0,3.375,33.75h24.75A3.376,3.376,0,0,0,31.5,30.375V5.625A3.376,3.376,0,0,0,28.125,2.25ZM8.93,27.035A1.405,1.405,0,0,1,6.5,25.629L7.5,23.892a2.413,2.413,0,0,1,2.784.8Zm9.766-3.79H5.906a1.406,1.406,0,0,1,0-2.812H9.492l4.6-7.959L12.649,9.984a1.405,1.405,0,0,1,2.433-1.406l.626,1.083.626-1.083a1.405,1.405,0,1,1,2.433,1.406L12.734,20.433H17.1a1.929,1.929,0,0,1,1.6,2.813Zm6.9,0H23.555l1.378,2.384A1.405,1.405,0,1,1,22.5,27.035q-3.47-6-5.2-9.007a3.89,3.89,0,0,1,.5-4.767q1.382,2.394,4.141,7.172h3.656a1.406,1.406,0,0,1,0,2.813Z" transform="translate(1217 5528)" fill="#fff"/>
    </g>
  </g>
</svg>
