<svg xmlns="http://www.w3.org/2000/svg" xmlns:xlink="http://www.w3.org/1999/xlink" width="337.377" height="78.936" viewBox="0 0 337.377 78.936">
  <defs>
    <filter id="Elipse_349" x="52" y="6.443" width="61" height="61" filterUnits="userSpaceOnUse">
      <feOffset dy="3" input="SourceAlpha"/>
      <feGaussianBlur stdDeviation="3" result="blur"/>
      <feFlood flood-opacity="0.349"/>
      <feComposite operator="in" in2="blur"/>
    </filter>
    <filter id="Elipse_350" x="106" y="6.443" width="61" height="61" filterUnits="userSpaceOnUse">
      <feOffset dy="3" input="SourceAlpha"/>
      <feGaussianBlur stdDeviation="3" result="blur-2"/>
      <feFlood flood-opacity="0.349"/>
      <feComposite operator="in" in2="blur-2"/>
    </filter>
    <filter id="Elipse_351" x="158" y="6.443" width="61" height="61" filterUnits="userSpaceOnUse">
      <feOffset dy="3" input="SourceAlpha"/>
      <feGaussianBlur stdDeviation="3" result="blur-3"/>
      <feFlood flood-opacity="0.349"/>
      <feComposite operator="in" in2="blur-3"/>
    </filter>
    <filter id="Elipse_352" x="211" y="6.443" width="61" height="61" filterUnits="userSpaceOnUse">
      <feOffset dy="3" input="SourceAlpha"/>
      <feGaussianBlur stdDeviation="3" result="blur-4"/>
      <feFlood flood-opacity="0.349"/>
      <feComposite operator="in" in2="blur-4"/>
    </filter>
    <filter id="Elipse_353" x="264" y="6.443" width="61" height="61" filterUnits="userSpaceOnUse">
      <feOffset dy="3" input="SourceAlpha"/>
      <feGaussianBlur stdDeviation="3" result="blur-5"/>
      <feFlood flood-opacity="0.349"/>
      <feComposite operator="in" in2="blur-5"/>
    </filter>
    <filter id="Elipse_320" x="0" y="6.443" width="61" height="61" filterUnits="userSpaceOnUse">
      <feOffset dy="3" input="SourceAlpha"/>
      <feGaussianBlur stdDeviation="3" result="blur-6"/>
      <feFlood flood-opacity="0.349"/>
      <feComposite operator="in" in2="blur-6"/>
    </filter>
    <filter id="Subtração_25" x="45.416" y="0" width="79.961" height="78.934" filterUnits="userSpaceOnUse">
      <feOffset dy="5" input="SourceAlpha"/>
      <feGaussianBlur stdDeviation="5" result="blur-7"/>
      <feFlood flood-opacity="0.561"/>
      <feComposite operator="in" in2="blur-7"/>
      <feComposite in="SourceGraphic"/>
    </filter>
    <filter id="Subtração_25-2" x="98.416" y="0.002" width="79.961" height="78.934" filterUnits="userSpaceOnUse">
      <feOffset dy="5" input="SourceAlpha"/>
      <feGaussianBlur stdDeviation="5" result="blur-8"/>
      <feFlood flood-opacity="0.561"/>
      <feComposite operator="in" in2="blur-8"/>
      <feComposite in="SourceGraphic"/>
    </filter>
    <filter id="Subtração_25-3" x="151.416" y="0.002" width="79.961" height="78.934" filterUnits="userSpaceOnUse">
      <feOffset dy="5" input="SourceAlpha"/>
      <feGaussianBlur stdDeviation="5" result="blur-9"/>
      <feFlood flood-opacity="0.561"/>
      <feComposite operator="in" in2="blur-9"/>
      <feComposite in="SourceGraphic"/>
    </filter>
    <filter id="Subtração_25-4" x="204.416" y="0.002" width="79.961" height="78.934" filterUnits="userSpaceOnUse">
      <feOffset dy="5" input="SourceAlpha"/>
      <feGaussianBlur stdDeviation="5" result="blur-10"/>
      <feFlood flood-opacity="0.561"/>
      <feComposite operator="in" in2="blur-10"/>
      <feComposite in="SourceGraphic"/>
    </filter>
    <filter id="Subtração_25-5" x="257.416" y="0.002" width="79.961" height="78.934" filterUnits="userSpaceOnUse">
      <feOffset dy="5" input="SourceAlpha"/>
      <feGaussianBlur stdDeviation="5" result="blur-11"/>
      <feFlood flood-opacity="0.561"/>
      <feComposite operator="in" in2="blur-11"/>
      <feComposite in="SourceGraphic"/>
    </filter>
  </defs>
  <g id="Grupo_21106" data-name="Grupo 21106" transform="translate(-241 -466.557)">
    <g transform="matrix(1, 0, 0, 1, 241, 466.56)" filter="url(#Elipse_349)">
      <circle id="Elipse_349-2" data-name="Elipse 349" cx="21.5" cy="21.5" r="21.5" transform="translate(61 12.44)" fill="#fff"/>
    </g>
    <g transform="matrix(1, 0, 0, 1, 241, 466.56)" filter="url(#Elipse_350)">
      <circle id="Elipse_350-2" data-name="Elipse 350" cx="21.5" cy="21.5" r="21.5" transform="translate(115 12.44)" fill="#fff"/>
    </g>
    <g transform="matrix(1, 0, 0, 1, 241, 466.56)" filter="url(#Elipse_351)">
      <circle id="Elipse_351-2" data-name="Elipse 351" cx="21.5" cy="21.5" r="21.5" transform="translate(167 12.44)" fill="#fff"/>
    </g>
    <g transform="matrix(1, 0, 0, 1, 241, 466.56)" filter="url(#Elipse_352)">
      <circle id="Elipse_352-2" data-name="Elipse 352" cx="21.5" cy="21.5" r="21.5" transform="translate(220 12.44)" fill="#fff"/>
    </g>
    <g transform="matrix(1, 0, 0, 1, 241, 466.56)" filter="url(#Elipse_353)">
      <circle id="Elipse_353-2" data-name="Elipse 353" cx="21.5" cy="21.5" r="21.5" transform="translate(273 12.44)" fill="#fff"/>
    </g>
    <g transform="matrix(1, 0, 0, 1, 241, 466.56)" filter="url(#Elipse_320)">
      <circle id="Elipse_320-2" data-name="Elipse 320" cx="21.5" cy="21.5" r="21.5" transform="translate(9 12.44)" fill="#fff"/>
    </g>
    <g id="Grupo_20383" data-name="Grupo 20383" transform="translate(199 152.643)">
      <g id="Elipse_254" data-name="Elipse 254" transform="translate(51 329)" fill="#fff" stroke="#bfbdbd" stroke-width="0.2">
        <circle cx="20.5" cy="20.5" r="20.5" stroke="none"/>
        <circle cx="20.5" cy="20.5" r="20.4" fill="none"/>
      </g>
      <path id="Subtração_24" data-name="Subtração 24" d="M667.185,23054.672a20.452,20.452,0,0,1-14.863-6.379l28.214-29.678a20.5,20.5,0,0,1-13.351,36.057Z" transform="translate(-595.686 -22684.672)" fill="#320995"/>
      <circle id="Elipse_312" data-name="Elipse 312" cx="4.5" cy="4.5" r="4.5" transform="translate(68 357)" fill="#e2306c"/>
    </g>
    <g id="color-2" transform="translate(199 152.643)">
      <g id="Grupo_20383-2" data-name="Grupo 20383" transform="translate(53)">
        <g id="Elipse_254-2" data-name="Elipse 254" transform="translate(51 329)" fill="#fff" stroke="#bfbdbd" stroke-width="0.2">
          <circle cx="20.5" cy="20.5" r="20.5" stroke="none"/>
          <circle cx="20.5" cy="20.5" r="20.4" fill="none"/>
        </g>
        <path id="Subtração_24-2" data-name="Subtração 24" d="M667.185,23054.672a20.452,20.452,0,0,1-14.863-6.379l28.214-29.678a20.5,20.5,0,0,1-13.351,36.057Z" transform="translate(-595.686 -22684.672)" fill="#e2306c"/>
        <circle id="Elipse_312-2" data-name="Elipse 312" cx="4.5" cy="4.5" r="4.5" transform="translate(68 357)" fill="#fff"/>
      </g>
      <g transform="matrix(1, 0, 0, 1, 42, 313.91)" filter="url(#Subtração_25)">
        <path id="Subtração_25-6" data-name="Subtração 25" d="M667.709,23060.979a20.36,20.36,0,0,1-14.62-6.172,36.926,36.926,0,0,0,14.334-6.369c7.918-5.9,11.755-14.3,11.4-24.969a20.4,20.4,0,0,1-11.119,37.51Z" transform="translate(-20574.44 -10191.12) rotate(-62)" fill="#fff" stroke="#fff" stroke-width="0.2" opacity="0.15"/>
      </g>
    </g>
    <g id="color-3" transform="translate(-830 254.266)">
      <g id="Grupo_20383-3" data-name="Grupo 20383" transform="translate(1135 -101.623)">
        <g id="Elipse_254-3" data-name="Elipse 254" transform="translate(51 329)" fill="#fff" stroke="#bfbdbd" stroke-width="0.2">
          <circle cx="20.5" cy="20.5" r="20.5" stroke="none"/>
          <circle cx="20.5" cy="20.5" r="20.4" fill="none"/>
        </g>
        <path id="Subtração_24-3" data-name="Subtração 24" d="M667.185,23054.672a20.452,20.452,0,0,1-14.863-6.379l28.214-29.678a20.5,20.5,0,0,1-13.351,36.057Z" transform="translate(-595.686 -22684.672)" fill="#320995"/>
        <circle id="Elipse_312-3" data-name="Elipse 312" cx="4.5" cy="4.5" r="4.5" transform="translate(68 357)" fill="#26e55f"/>
      </g>
      <g transform="matrix(1, 0, 0, 1, 1071, 212.29)" filter="url(#Subtração_25-2)">
        <path id="Subtração_25-7" data-name="Subtração 25" d="M667.709,23060.979a20.36,20.36,0,0,1-14.62-6.172,36.926,36.926,0,0,0,14.334-6.369c7.918-5.9,11.755-14.3,11.4-24.969a20.4,20.4,0,0,1-11.119,37.51Z" transform="translate(-20521.44 -10191.12) rotate(-62)" fill="#fff" stroke="#fff" stroke-width="0.2" opacity="0.15"/>
      </g>
    </g>
    <g id="color-4" transform="translate(-830 254.266)">
      <g id="Grupo_20383-4" data-name="Grupo 20383" transform="translate(1188 -101.623)">
        <g id="Elipse_254-4" data-name="Elipse 254" transform="translate(51 329)" fill="#fff" stroke="#bfbdbd" stroke-width="0.2">
          <circle cx="20.5" cy="20.5" r="20.5" stroke="none"/>
          <circle cx="20.5" cy="20.5" r="20.4" fill="none"/>
        </g>
        <path id="Subtração_24-4" data-name="Subtração 24" d="M667.185,23054.672a20.452,20.452,0,0,1-14.863-6.379l28.214-29.678a20.5,20.5,0,0,1-13.351,36.057Z" transform="translate(-595.686 -22684.672)" fill="#26e55f"/>
        <circle id="Elipse_312-4" data-name="Elipse 312" cx="4.5" cy="4.5" r="4.5" transform="translate(68 357)" fill="#320995"/>
      </g>
      <g transform="matrix(1, 0, 0, 1, 1071, 212.29)" filter="url(#Subtração_25-3)">
        <path id="Subtração_25-8" data-name="Subtração 25" d="M667.709,23060.979a20.36,20.36,0,0,1-14.62-6.172,36.926,36.926,0,0,0,14.334-6.369c7.918-5.9,11.755-14.3,11.4-24.969a20.4,20.4,0,0,1-11.119,37.51Z" transform="translate(-20468.44 -10191.12) rotate(-62)" fill="#fff" stroke="#fff" stroke-width="0.2" opacity="0.15"/>
      </g>
    </g>
    <g id="color-5" transform="translate(-830 254.266)">
      <g id="Grupo_20383-5" data-name="Grupo 20383" transform="translate(1241 -101.623)">
        <g id="Elipse_254-5" data-name="Elipse 254" transform="translate(51 329)" fill="#fff" stroke="#bfbdbd" stroke-width="0.2">
          <circle cx="20.5" cy="20.5" r="20.5" stroke="none"/>
          <circle cx="20.5" cy="20.5" r="20.4" fill="none"/>
        </g>
        <path id="Subtração_24-5" data-name="Subtração 24" d="M667.185,23054.672a20.452,20.452,0,0,1-14.863-6.379l28.214-29.678a20.5,20.5,0,0,1-13.351,36.057Z" transform="translate(-595.686 -22684.672)" fill="#5b31c1"/>
        <circle id="Elipse_312-5" data-name="Elipse 312" cx="4.5" cy="4.5" r="4.5" transform="translate(68 357)" fill="#e2306c"/>
      </g>
      <g transform="matrix(1, 0, 0, 1, 1071, 212.29)" filter="url(#Subtração_25-4)">
        <path id="Subtração_25-9" data-name="Subtração 25" d="M667.709,23060.979a20.36,20.36,0,0,1-14.62-6.172,36.926,36.926,0,0,0,14.334-6.369c7.918-5.9,11.755-14.3,11.4-24.969a20.4,20.4,0,0,1-11.119,37.51Z" transform="translate(-20415.44 -10191.12) rotate(-62)" fill="#fff" stroke="#fff" stroke-width="0.2" opacity="0.15"/>
      </g>
    </g>
    <g id="color-6" transform="translate(-830 254.266)">
      <g id="Grupo_20383-6" data-name="Grupo 20383" transform="translate(1294 -101.623)">
        <g id="Elipse_254-6" data-name="Elipse 254" transform="translate(51 329)" fill="#fff" stroke="#bfbdbd" stroke-width="0.2">
          <circle cx="20.5" cy="20.5" r="20.5" stroke="none"/>
          <circle cx="20.5" cy="20.5" r="20.4" fill="none"/>
        </g>
        <path id="Subtração_24-6" data-name="Subtração 24" d="M667.185,23054.672a20.452,20.452,0,0,1-14.863-6.379l28.214-29.678a20.5,20.5,0,0,1-13.351,36.057Z" transform="translate(-595.686 -22684.672)" fill="#393939"/>
        <circle id="Elipse_312-6" data-name="Elipse 312" cx="4.5" cy="4.5" r="4.5" transform="translate(68 357)" fill="#e2306c"/>
      </g>
      <g transform="matrix(1, 0, 0, 1, 1071, 212.29)" filter="url(#Subtração_25-5)">
        <path id="Subtração_25-10" data-name="Subtração 25" d="M667.709,23060.979a20.36,20.36,0,0,1-14.62-6.172,36.926,36.926,0,0,0,14.334-6.369c7.918-5.9,11.755-14.3,11.4-24.969a20.4,20.4,0,0,1-11.119,37.51Z" transform="translate(-20362.44 -10191.12) rotate(-62)" fill="#fff" stroke="#fff" stroke-width="0.2" opacity="0.15"/>
      </g>
    </g>
  </g>
</svg>
