<svg xmlns="http://www.w3.org/2000/svg" width="171.535" height="31.51" viewBox="0 0 171.535 31.51">
  <g id="Grupo_21111" data-name="Grupo 21111" transform="translate(-1373 -19465)">
    <path id="Icon_ionic-logo-facebook" data-name="Icon ionic-logo-facebook" d="M34.03,4.5H6.226A1.726,1.726,0,0,0,4.5,6.226v27.8a1.726,1.726,0,0,0,1.726,1.726h13.9V23.384H16.392V18.826h3.736v-3.37c0-4.037,2.8-6.235,6.406-6.235,1.726,0,3.581.13,4.013.187v4.216H27.673c-1.962,0-2.336.928-2.336,2.3v2.906h4.672l-.61,4.558H25.337V35.756H34.03a1.726,1.726,0,0,0,1.726-1.726V6.226A1.726,1.726,0,0,0,34.03,4.5Z" transform="translate(1368.5 19460.754)" fill="#fff"/>
    <path id="Icon_awesome-linkedin" data-name="Icon awesome-linkedin" d="M29.25,2.25H2.243A2.26,2.26,0,0,0,0,4.521V31.479A2.26,2.26,0,0,0,2.243,33.75H29.25a2.266,2.266,0,0,0,2.25-2.271V4.521A2.266,2.266,0,0,0,29.25,2.25Zm-19.73,27H4.852V14.217H9.527V29.25ZM7.186,12.164A2.707,2.707,0,1,1,9.893,9.457a2.708,2.708,0,0,1-2.707,2.707ZM27.021,29.25H22.352V21.938c0-1.744-.035-3.987-2.426-3.987-2.433,0-2.805,1.9-2.805,3.86V29.25H12.452V14.217h4.479V16.27h.063a4.917,4.917,0,0,1,4.423-2.426c4.725,0,5.6,3.115,5.6,7.165Z" transform="translate(1415.106 19462.754)" fill="#fff"/>
    <path id="Icon_awesome-instagram" data-name="Icon awesome-instagram" d="M15.757,9.914a8.079,8.079,0,1,0,8.079,8.079A8.066,8.066,0,0,0,15.757,9.914Zm0,13.331a5.252,5.252,0,1,1,5.252-5.252,5.262,5.262,0,0,1-5.252,5.252ZM26.051,9.584A1.884,1.884,0,1,1,24.166,7.7,1.88,1.88,0,0,1,26.051,9.584ZM31.4,11.5a9.325,9.325,0,0,0-2.545-6.6,9.387,9.387,0,0,0-6.6-2.545c-2.6-.148-10.4-.148-13,0a9.373,9.373,0,0,0-6.6,2.538,9.356,9.356,0,0,0-2.545,6.6c-.148,2.6-.148,10.4,0,13a9.325,9.325,0,0,0,2.545,6.6,9.4,9.4,0,0,0,6.6,2.545c2.6.148,10.4.148,13,0a9.325,9.325,0,0,0,6.6-2.545,9.387,9.387,0,0,0,2.545-6.6c.148-2.6.148-10.392,0-12.994ZM28.041,27.281a5.318,5.318,0,0,1-3,3c-2.074.823-7,.633-9.288.633s-7.221.183-9.288-.633a5.318,5.318,0,0,1-3-3c-.823-2.074-.633-7-.633-9.288s-.183-7.221.633-9.288a5.318,5.318,0,0,1,3-3c2.074-.823,7-.633,9.288-.633s7.221-.183,9.288.633a5.318,5.318,0,0,1,3,3c.823,2.074.633,7,.633,9.288S28.863,25.214,28.041,27.281Z" transform="translate(1457.461 19462.762)" fill="#fff"/>
    <path id="Icon_simple-youtube" data-name="Icon simple-youtube" d="M43.785,10.249a5.6,5.6,0,0,0-3.891-3.891c-3.485-.934-17.511-.934-17.511-.934s-13.99-.019-17.511.934A5.6,5.6,0,0,0,.98,10.249,58.234,58.234,0,0,0,.008,21.068,58.233,58.233,0,0,0,.98,31.845a5.6,5.6,0,0,0,3.891,3.891c3.481.936,17.511.936,17.511.936s13.989,0,17.511-.936a5.6,5.6,0,0,0,3.891-3.891,58.234,58.234,0,0,0,.932-10.778,58.233,58.233,0,0,0-.932-10.819ZM17.906,27.76V14.355L29.58,21.068Z" transform="translate(1499.816 19459.832)" fill="#fff"/>
  </g>
</svg>
